<svg version="1.1" id="Layer_1" xmlns="http://www.w3.org/2000/svg" xmlns:xlink="http://www.w3.org/1999/xlink" x="0px" y="0px"
	 width="100%" viewBox="0 0 1024 1024" enable-background="new 0 0 1024 1024" xml:space="preserve">
<path fill="#010000" opacity="1.000000" stroke="none" 
	d="
M575.000000,1025.000000 
	C383.333344,1025.000000 192.166672,1025.000000 1.000000,1025.000000 
	C1.000000,683.666687 1.000000,342.333344 1.000000,1.000000 
	C342.333344,1.000000 683.666687,1.000000 1025.000000,1.000000 
	C1025.000000,342.333344 1025.000000,683.666687 1025.000000,1025.000000 
	C875.166687,1025.000000 725.333313,1025.000000 575.000000,1025.000000 
M424.926727,467.894257 
	C424.926727,467.894257 424.942627,467.902954 424.241028,468.422058 
	C423.869049,468.868134 423.497101,469.314209 422.257172,469.632629 
	C421.722992,468.102905 421.188782,466.573212 420.783722,464.162109 
	C420.740021,461.794769 420.696350,459.427429 420.920044,456.163300 
	C420.846466,452.427490 420.772888,448.691650 420.846252,444.035095 
	C420.810577,424.668091 420.774902,405.301117 421.040344,385.420044 
	C421.655365,382.270416 419.384094,382.804047 417.630463,382.803894 
	C405.312103,382.802734 392.991302,382.974304 380.676849,382.764008 
	C376.779053,382.697449 375.911102,384.170624 375.958466,387.724304 
	C376.173584,403.864288 376.223755,420.007080 376.238892,436.148956 
	C376.276520,476.263733 376.262726,516.378601 376.269470,556.493408 
	C376.269836,558.607849 376.269501,560.722290 376.269501,563.268005 
	C390.826019,563.268005 404.773926,563.299316 418.720306,563.170227 
	C419.378021,563.164185 420.022552,561.733093 420.836884,560.049377 
	C420.814056,555.022339 420.791229,549.995361 421.004761,544.082947 
	C421.089996,539.686890 421.175232,535.290771 421.850800,530.521973 
	C422.204102,529.943237 422.557434,529.364563 423.243805,528.545227 
	C423.467499,528.375671 423.636169,528.162598 424.307312,527.503601 
	C427.070618,524.776123 429.803040,522.016418 432.603699,519.327881 
	C438.362579,513.799500 444.158051,508.309204 450.630005,502.961700 
	C454.056152,506.054688 457.482300,509.147644 460.764862,512.138977 
	C460.764862,512.138977 460.804413,512.118042 461.115051,512.765503 
	C462.003204,513.542236 462.891357,514.319031 463.945801,515.645935 
	C464.276611,515.814514 464.607422,515.983032 465.159729,516.755554 
	C466.731079,518.186951 468.302429,519.618408 470.089020,521.675415 
	C472.014954,523.510681 473.940887,525.345947 475.961700,527.059265 
	C475.961700,527.059265 475.822815,527.127075 476.035126,527.766357 
	C478.699432,530.145935 481.363739,532.525513 483.901642,535.456421 
	C484.199799,535.660034 484.497955,535.863647 485.025452,536.708435 
	C491.324158,542.881287 497.622864,549.054077 504.166138,555.834290 
	C507.326294,558.226746 510.180573,561.791260 513.723816,562.716064 
	C518.189453,563.881592 523.217651,562.891541 528.925232,563.012329 
	C543.124390,563.012329 557.323486,563.012329 571.522644,563.012329 
	C571.774902,562.566040 572.027222,562.119751 572.279480,561.673462 
	C557.785400,547.454102 543.291382,533.234741 528.570679,518.402527 
	C519.087830,509.044037 509.605042,499.685577 499.924927,490.033752 
	C499.924927,490.033752 499.633575,489.833588 499.430054,489.284363 
	C497.250549,487.199921 495.071075,485.115479 492.665131,482.408752 
	C488.952484,479.200653 485.239838,475.992523 481.527222,472.784424 
	C481.945129,472.379700 482.363037,471.974976 482.780945,471.570251 
	C484.914429,469.268219 487.047913,466.966217 489.799774,464.388123 
	C490.840332,463.246307 491.880890,462.104492 493.392242,460.853729 
	C493.656403,460.468140 493.920593,460.082581 494.822388,459.385468 
	C496.839844,457.243286 498.857300,455.101105 501.400757,452.795319 
	C501.586426,452.490784 501.772095,452.186249 502.583740,451.664856 
	C508.402344,445.781158 514.220886,439.897461 520.676636,433.808716 
	C526.134399,428.254333 531.592163,422.699921 537.678284,416.917023 
	C539.303589,415.206482 540.928894,413.495911 542.659607,411.649811 
	C542.659607,411.649811 542.799255,411.549988 543.340759,411.266327 
	C544.740295,409.774323 546.139832,408.282318 547.658569,406.656494 
	C547.658569,406.656494 547.801025,406.547729 548.362610,406.255646 
	C555.568604,399.117218 562.774597,391.978790 570.653015,384.642944 
	C570.439636,384.165771 570.226257,383.688599 569.083130,383.073303 
	C559.725159,383.124512 550.367249,383.175751 540.092529,383.016998 
	C534.066650,383.092468 528.040833,383.167908 521.111267,383.035309 
	C517.107605,383.451813 512.170898,382.545258 509.300781,384.569214 
	C503.864563,388.402679 499.614105,393.917603 494.235016,398.975555 
	C484.581451,408.647858 474.927887,418.320160 464.923401,428.138214 
	C464.923401,428.138214 464.875397,428.515076 464.280029,428.803619 
	C464.038818,429.163116 463.797607,429.522614 462.946106,430.075775 
	C459.145416,433.989380 455.344727,437.903015 450.940247,442.029877 
	C443.296539,449.718811 435.652863,457.407745 427.567261,465.130280 
	C427.350952,465.469727 427.134644,465.809143 426.142487,466.687439 
	C425.693237,467.125519 425.244019,467.563599 424.926727,467.894257 
M193.287338,1004.892151 
	C193.287338,1004.208313 193.287338,1003.524475 193.287338,1003.462402 
	C193.377731,1003.704102 193.648376,1004.427856 194.612656,1005.642700 
	C194.836227,1006.730713 194.818588,1007.949280 195.324585,1008.884521 
	C197.684586,1013.245972 201.146088,1009.395691 204.349792,1010.843323 
	C205.388580,1009.163391 206.427353,1007.483459 207.961334,1005.002625 
	C208.613327,1007.665527 209.040787,1009.411377 209.468246,1011.157288 
	C210.032669,1011.025085 210.597092,1010.892883 211.161530,1010.760681 
	C210.808762,1008.720764 211.117416,1005.925049 209.906616,1004.865723 
	C208.819229,1003.914062 206.062454,1004.870239 203.290268,1005.452271 
	C201.048599,1005.213806 198.811096,1004.904236 196.563187,1004.772888 
	C195.694275,1004.722107 194.801743,1005.075378 193.287338,1004.892151 
M134.438522,1006.039185 
	C133.820145,1005.563782 133.212952,1004.704651 132.581253,1004.686157 
	C130.804321,1004.634399 128.653000,1004.403687 127.375336,1005.290039 
	C126.647522,1005.794983 126.747108,1009.262573 127.527779,1009.767700 
	C128.778412,1010.577087 130.914856,1010.157410 132.655380,1010.007446 
	C133.459351,1009.938293 134.212555,1009.279724 134.980270,1009.596680 
	C135.570770,1011.940430 135.186020,1015.815857 139.221176,1014.246033 
	C144.546722,1012.174011 141.111526,1007.531799 142.189224,1003.099365 
	C139.161804,1004.101685 137.117416,1004.778503 134.438522,1006.039185 
M185.644714,1010.361084 
	C190.408096,1011.396667 190.408096,1011.396667 189.654480,1003.510925 
	C187.977036,1004.183228 186.513000,1004.770020 185.048950,1005.356750 
	C185.701813,1006.243286 186.354660,1007.129883 185.916977,1008.255066 
	C184.593124,1006.921021 183.269287,1005.586914 181.730362,1004.036133 
	C181.281754,1005.627930 180.789276,1007.375305 180.296814,1009.122681 
	C179.963715,1009.096680 179.630615,1009.070740 179.297516,1009.044739 
	C178.921494,1007.408508 178.545486,1005.772278 178.169479,1004.135986 
	C177.823944,1004.335327 177.478424,1004.534668 177.132889,1004.734070 
	C176.142532,1003.590515 175.152176,1002.447021 173.825012,1000.914551 
	C172.842453,1006.463684 170.476562,999.836670 168.658218,1001.450134 
	C165.543930,1004.213501 162.517944,1005.759644 158.765427,1002.222290 
	C158.007690,1001.507996 156.000610,1002.118958 154.500351,1002.118958 
	C154.500351,1005.332581 154.500351,1008.072998 154.500351,1011.942749 
	C157.807098,1010.654358 160.474777,1009.614929 163.170059,1008.564758 
	C163.221680,1008.676575 163.512024,1009.305237 163.994370,1010.349609 
	C164.516022,1008.302429 164.931915,1006.670288 165.347809,1005.038147 
	C165.719513,1005.010498 166.091232,1004.982788 166.462952,1004.955139 
	C167.027267,1007.014099 167.591583,1009.073120 168.155899,1011.132080 
	C168.479416,1011.106201 168.802933,1011.080261 169.126450,1011.054382 
	C169.594162,1009.270935 170.061890,1007.487488 170.529602,1005.704041 
	C170.857452,1005.727539 171.185303,1005.751038 171.513138,1005.774475 
	C171.869583,1007.567322 172.226013,1009.360168 172.582443,1011.153015 
	C172.965652,1011.116760 173.348862,1011.080444 173.732086,1011.044128 
	C174.095047,1009.268372 174.458023,1007.492615 174.927658,1005.194946 
	C177.915710,1011.878235 179.092804,1012.340271 185.644714,1010.361084 
M558.438416,433.431854 
	C557.852295,434.806671 557.227783,436.166504 556.685730,437.558472 
	C545.193054,467.072784 547.792603,495.297791 564.693542,522.904846 
	C569.463074,528.564392 574.232544,534.223938 579.583191,540.258362 
	C586.561890,548.309448 595.279785,553.866882 605.520325,558.467590 
	C613.015137,560.620544 620.509949,562.773499 628.694824,565.260681 
	C630.471680,565.480164 632.248474,565.699646 634.604248,566.212280 
	C636.105408,566.327087 637.606567,566.441833 639.945312,566.819336 
	C646.376160,566.519775 652.885193,566.748352 659.221313,565.809387 
	C671.982361,563.918274 684.191711,560.119568 695.818237,552.920105 
	C702.291504,547.726135 708.673767,542.412598 715.275269,537.387024 
	C718.734924,534.753296 719.419617,531.439392 719.402954,527.409241 
	C719.309753,504.940765 719.372498,482.471649 719.381653,460.002777 
	C719.382507,457.913818 719.381714,455.824860 719.381714,453.859314 
	C705.221191,453.859314 691.608459,453.859314 677.225830,453.572784 
	C665.819031,453.572784 654.412170,453.572784 642.941833,453.572784 
	C642.941833,466.907043 642.941833,479.649109 642.941833,492.917847 
	C655.150696,492.917847 667.093262,492.917847 679.053772,493.806366 
	C679.163330,495.867126 679.272888,497.927887 679.168091,500.854523 
	C679.259583,504.203888 679.351074,507.553253 679.229858,511.582214 
	C679.165039,512.761841 679.100220,513.941528 678.374512,515.362366 
	C665.272522,524.749573 650.745789,527.999634 634.278442,525.134521 
	C622.698669,522.578857 612.670776,517.348633 604.882324,507.636688 
	C604.514709,507.326294 604.147034,507.015900 603.491882,506.044189 
	C602.724182,505.133209 601.956543,504.222260 601.095520,502.647247 
	C598.090149,495.519714 593.527161,488.615448 592.465759,481.209351 
	C591.076843,471.517761 591.297485,461.274567 596.678101,451.818481 
	C600.316772,446.411072 603.360901,440.458679 607.715698,435.707581 
	C617.344055,425.202911 629.951111,420.455566 644.766663,419.477905 
	C648.182129,419.642883 651.597656,419.807861 655.617981,420.311127 
	C656.747986,420.487732 657.878052,420.664307 659.660278,421.210815 
	C669.720642,424.237061 678.368652,429.718506 687.251587,437.699615 
	C696.188843,427.704926 705.034790,417.812378 714.027466,407.755707 
	C697.398254,390.608795 676.381470,380.165802 650.231323,378.828461 
	C629.620850,378.015289 610.350708,382.242828 592.404236,394.147064 
	C585.945190,400.096802 579.486206,406.046509 572.685120,412.587708 
	C568.720337,418.193268 564.755615,423.798828 560.249695,429.758240 
	C560.141235,430.163757 560.032715,430.569244 559.453247,431.329010 
	C559.294189,431.883453 559.135193,432.437897 558.438416,433.431854 
M334.097809,383.043121 
	C329.402618,383.114594 324.707397,383.186066 319.105896,383.021759 
	C314.865112,383.021759 310.624329,383.021759 306.430115,383.021759 
	C306.430115,443.435394 306.430115,503.065674 306.430115,562.885620 
	C314.068176,562.885620 321.340454,562.885620 329.603485,563.037842 
	C336.018585,563.037842 342.433716,563.037842 349.110474,563.037842 
	C349.110474,560.719727 349.110626,559.070190 349.110443,557.420654 
	C349.105347,503.625366 349.101257,449.830109 349.094330,396.034821 
	C349.092529,382.078430 349.088501,382.078430 334.097809,383.043121 
M315.368439,640.365723 
	C315.490692,637.850830 315.612976,635.335876 315.745972,632.600403 
	C322.306213,636.689819 322.816589,647.405762 332.962616,646.741150 
	C332.962616,637.473267 332.962616,628.588806 332.962616,619.658447 
	C330.702698,619.658447 328.817963,619.658447 326.193817,619.658447 
	C326.193817,624.303467 326.193817,628.604919 326.193817,632.879395 
	C319.525909,629.061218 319.174194,618.029846 308.566071,619.521729 
	C308.566071,628.776489 308.566071,637.516235 308.566071,646.488525 
	C310.918854,646.488525 312.953522,646.488525 315.360352,646.488525 
	C315.360352,644.565857 315.360352,642.921448 315.368439,640.365723 
M563.410156,628.577026 
	C563.410156,625.615906 563.410156,622.654785 563.410156,619.539856 
	C561.059387,619.539856 559.134705,619.539856 556.345581,619.539856 
	C556.345581,624.174927 556.345581,628.586182 556.345581,633.112488 
	C549.682739,628.995117 549.490540,618.211365 539.049438,619.335449 
	C539.049438,628.554749 539.049438,637.448547 539.049438,646.526123 
	C541.224426,646.526123 543.148682,646.526123 545.784119,646.526123 
	C545.784119,641.684509 545.784119,637.034790 545.784119,631.317017 
	C549.013000,635.473022 551.521851,638.514954 553.817749,641.709839 
	C556.147888,644.952332 558.167542,648.563660 563.418030,645.898315 
	C563.418030,640.491028 563.418030,635.021606 563.410156,628.577026 
M485.659882,619.686096 
	C484.536774,619.399292 483.429077,618.979309 482.288055,618.847351 
	C474.927368,617.995850 469.056488,620.987183 466.554718,626.791138 
	C463.966858,632.794800 465.304199,640.100708 469.676056,643.842651 
	C474.294037,647.795288 483.129669,648.440186 488.494141,645.013123 
	C489.629639,644.287720 490.944153,642.880432 491.051270,641.686462 
	C491.383057,637.987793 491.172577,634.240540 491.172577,630.525879 
	C488.613708,630.525879 486.791107,630.525940 484.968506,630.525940 
	C483.028503,630.525940 481.088501,630.525879 478.820831,630.525879 
	C478.948730,632.826355 479.037323,634.419617 479.139618,636.259583 
	C481.094849,636.259583 482.703766,636.259583 484.312683,636.259583 
	C484.639832,636.630981 484.966949,637.002380 485.294067,637.373779 
	C484.211212,638.519592 483.307800,640.329163 482.009979,640.680115 
	C478.808411,641.545898 475.611847,641.083374 473.773865,637.747620 
	C471.716675,634.013977 471.987640,630.337646 474.821747,627.123962 
	C477.476532,624.113708 481.744812,624.356323 487.199371,627.737427 
	C488.295441,626.178467 489.403870,624.601929 490.815948,622.593567 
	C489.107513,621.571106 487.734436,620.749390 485.659882,619.686096 
M643.037292,619.412842 
	C637.761047,619.412842 632.484802,619.412842 626.981506,619.412842 
	C626.981506,628.682007 626.981506,637.590698 626.981506,646.587952 
	C633.844788,646.587952 640.424377,646.587952 647.238525,646.587952 
	C647.238525,644.618713 647.238525,642.885376 647.238525,640.835449 
	C642.693420,640.835449 638.431030,640.835449 633.964600,640.835449 
	C633.964600,639.107056 633.964600,637.696716 633.964600,635.781982 
	C638.040222,635.781982 641.788940,635.781982 645.893005,635.781982 
	C645.765137,633.691528 645.669495,632.127808 645.550537,630.183716 
	C641.558960,630.183716 637.963684,630.183716 634.134521,630.183716 
	C634.134521,628.380859 634.134521,626.986389 634.134521,625.097168 
	C638.619141,625.097168 642.845642,625.097168 647.284851,625.097168 
	C646.924683,622.320740 648.863708,618.789124 643.037292,619.412842 
M368.345520,642.813477 
	C367.371155,642.151489 366.429901,640.985291 365.416412,640.918701 
	C361.848907,640.684387 358.256622,640.827576 353.745728,640.827576 
	C356.063690,632.412292 363.320801,638.397339 366.936920,634.721008 
	C366.836090,633.533203 366.704132,631.979126 366.538574,630.029053 
	C362.364258,630.029053 358.607605,630.029053 354.469330,630.029053 
	C354.611328,628.179565 354.717529,626.796387 354.834900,625.267822 
	C359.373627,625.267822 363.487152,625.267822 367.780090,625.267822 
	C367.780090,623.193481 367.780090,621.329590 367.780090,619.644775 
	C360.996033,619.644775 354.579926,619.644775 348.089478,619.644775 
	C348.089478,628.785767 348.089478,637.653870 348.089478,646.806763 
	C353.915009,646.806763 359.398529,646.672424 364.870453,646.866150 
	C367.421478,646.956543 368.689758,646.314575 368.345520,642.813477 
M513.227966,625.292480 
	C517.149536,625.292480 521.071106,625.292480 525.258545,625.292480 
	C525.146545,623.093506 525.056702,621.329346 524.964783,619.524780 
	C518.102966,619.524780 511.662506,619.524780 504.923462,619.524780 
	C504.923462,628.587524 504.923462,637.484802 504.923462,646.414062 
	C511.945251,646.414062 518.665710,646.414062 525.495239,646.414062 
	C525.495239,644.437744 525.495239,642.813416 525.495239,640.800903 
	C520.894592,640.800903 516.472107,640.800903 511.613098,640.800903 
	C511.698761,639.021240 511.764740,637.650635 511.849365,635.892151 
	C515.987183,635.892151 519.746521,635.892151 523.899170,635.892151 
	C523.766968,633.750061 523.661926,632.047241 523.534912,629.987427 
	C519.268921,629.987427 515.505188,629.987427 511.225159,629.987427 
	C511.612030,628.144104 511.898651,626.778381 513.227966,625.292480 
M712.823425,622.189819 
	C712.823425,624.770935 712.823425,627.351990 712.823425,629.956604 
	C709.324707,629.956604 706.392273,629.956604 702.895569,629.956604 
	C702.895569,626.357117 702.895569,622.971741 702.895569,619.635681 
	C700.267029,619.635681 698.219360,619.635681 696.174561,619.635681 
	C696.174561,628.715027 696.174561,637.451294 696.174561,646.382202 
	C698.481995,646.382202 700.534668,646.382202 702.810242,646.382202 
	C702.962036,643.010742 703.101685,639.909790 703.252197,636.566772 
	C706.501282,636.566772 709.531616,636.566772 712.882446,636.566772 
	C712.882446,640.029419 712.882446,643.141785 712.882446,646.362183 
	C715.256592,646.362183 717.304504,646.362183 719.847168,646.362183 
	C719.847168,639.420288 719.847168,632.807556 719.847168,626.194885 
	C719.847168,624.076233 719.847168,621.957642 719.847168,618.286438 
	C716.844421,619.580566 714.829224,620.449036 712.823425,622.189819 
M404.481323,644.091003 
	C402.723938,641.475098 401.144989,638.713318 399.158905,636.284485 
	C397.180237,633.864746 397.042786,631.862122 398.944519,629.310181 
	C401.184875,626.303772 403.039673,623.010010 405.106537,619.770508 
	C399.393219,618.627808 399.393219,618.627808 392.191742,627.273621 
	C390.076660,621.301575 386.764221,617.316101 379.848083,620.127319 
	C382.219666,623.654785 384.712341,626.970032 386.714081,630.559204 
	C387.385254,631.762695 387.376434,633.991333 386.691803,635.185913 
	C384.505981,638.999939 381.856903,642.548401 379.496307,646.037537 
	C387.121582,649.350220 389.004150,642.442261 392.770538,638.477722 
	C393.863922,640.235474 394.928986,641.390747 395.365021,642.748047 
	C396.991791,647.811646 401.210449,646.570190 404.822052,646.862305 
	C404.860779,646.138611 404.899506,645.414856 404.481323,644.091003 
M683.211853,624.810486 
	C682.607056,623.535034 682.255493,621.401855 681.352844,621.135315 
	C677.798157,620.085876 674.021301,618.873962 670.417297,619.108643 
	C664.122314,619.518677 659.530273,624.772583 658.901001,630.958801 
	C658.156494,638.278442 661.197998,643.662415 667.481812,646.147888 
	C673.941528,648.702942 679.868591,647.134521 683.960327,641.576233 
	C682.576599,640.297119 681.165894,638.993042 679.789795,637.721069 
	C674.858643,641.573792 671.265686,641.850159 668.195496,638.777649 
	C665.492065,636.072083 665.212708,630.754822 667.616699,627.762207 
	C670.414978,624.278931 674.127319,624.279663 680.449158,627.849731 
	C681.165100,626.998352 681.905640,626.117676 683.211853,624.810486 
M414.229706,623.373779 
	C415.053345,624.045044 415.807312,625.151428 416.715179,625.296814 
	C418.594574,625.597778 420.555817,625.387573 422.960144,625.387573 
	C422.960144,632.778564 422.960144,639.666504 422.960144,646.849670 
	C425.537140,646.711243 427.607422,646.600098 429.976532,646.472900 
	C429.976532,639.149475 429.976532,632.371277 429.976532,625.375244 
	C432.752838,625.235596 435.206543,625.112183 437.707001,624.986389 
	C437.707001,623.007568 437.707001,621.291504 437.707001,619.304993 
	C430.683014,619.304993 424.018219,619.164062 417.371704,619.449158 
	C416.312531,619.494507 415.335419,621.452576 414.229706,623.373779 
M603.489502,619.397522 
	C599.569214,619.397522 595.648926,619.397522 591.500366,619.397522 
	C591.500366,621.696106 591.500366,623.390991 591.500366,625.595337 
	C594.392456,625.595337 596.957336,625.595337 599.836914,625.595337 
	C599.836914,632.862976 599.836914,639.624573 599.836914,646.373779 
	C602.242737,646.373779 604.298645,646.373779 606.907349,646.373779 
	C606.907349,639.181641 606.907349,632.320129 606.907349,625.180420 
	C609.764832,625.180420 612.059143,625.180420 614.643555,625.180420 
	C614.643555,623.179199 614.643555,621.473999 614.643555,619.404602 
	C611.060425,619.404602 607.764526,619.404602 603.489502,619.397522 
M109.529350,1010.273865 
	C110.712128,1009.693298 112.062019,1009.313599 113.046463,1008.494629 
	C116.040573,1006.003662 117.112823,1002.670959 115.542854,999.118286 
	C113.648155,994.830688 109.413132,994.453430 105.706879,995.343567 
	C103.654869,995.836426 102.136024,998.549255 99.433594,1001.179504 
	C103.171112,1001.633667 105.028381,1001.859375 107.246277,1002.128845 
	C105.602570,1005.117615 104.159508,1007.741577 102.301094,1011.120728 
	C105.189209,1010.861023 106.981888,1010.699829 109.529350,1010.273865 
M96.876282,1012.150940 
	C96.935020,1012.944397 96.993759,1013.737793 97.052498,1014.531250 
	C97.288002,1014.607544 97.523506,1014.683899 97.759018,1014.760254 
	C99.105759,1011.606506 100.452507,1008.452820 101.930351,1004.992065 
	C99.641914,1004.851562 97.911034,1004.745239 95.798203,1004.615540 
	C96.987923,1001.271484 98.003311,998.417419 99.505783,994.194336 
	C96.069572,995.300476 92.616318,995.354797 91.677292,996.918640 
	C89.167358,1001.099060 87.736633,1005.927368 85.767197,1010.768188 
	C89.744385,1010.980225 93.200562,1011.164490 96.876282,1012.150940 
M147.259689,1003.896423 
	C145.861221,1005.158020 144.239227,1006.271118 143.229462,1007.790955 
	C142.992142,1008.148071 144.697769,1010.616638 145.732742,1010.791260 
	C147.028702,1011.009949 149.791977,1009.786560 149.762909,1009.320129 
	C149.650146,1007.511536 148.680618,1005.756409 147.259689,1003.896423 
z"/>
<path fill="#918FF9" opacity="1.000000" stroke="none" 
	d="
M420.652679,457.060089 
	C420.696350,459.427429 420.740021,461.794769 420.500549,464.845062 
	C418.823151,470.892181 419.144012,471.527313 423.350159,470.990051 
	C425.170898,469.348663 426.616547,467.704193 428.414825,466.003052 
	C430.491974,464.914215 432.216492,463.882050 433.905304,462.871307 
	C437.594452,469.082581 434.089691,474.123566 433.329010,479.538788 
	C431.927338,489.516907 434.116608,499.824554 430.129913,509.708344 
	C428.190643,514.516052 431.518585,521.407715 424.134094,524.151489 
	C423.408325,524.421143 423.361511,526.518127 422.945312,528.018921 
	C422.897614,528.442505 422.904205,528.614136 422.910767,528.785828 
	C422.557434,529.364563 422.204102,529.943237 421.237366,530.897583 
	C420.672089,535.838257 420.720245,540.403259 420.768402,544.968323 
	C420.791229,549.995361 420.814056,555.022339 420.364319,560.588135 
	C411.914673,561.421570 403.937592,561.716187 396.012726,561.643433 
	C401.252258,552.881897 399.565125,543.233276 400.872253,534.143799 
	C401.125275,532.384460 399.739075,530.424072 399.271423,528.516602 
	C398.808929,526.630188 398.099976,524.650208 398.278442,522.785889 
	C399.395813,511.110809 401.225708,499.480225 401.784821,487.785461 
	C402.062286,481.981354 399.888184,476.097992 399.273407,470.203491 
	C398.543671,463.207306 398.246887,456.163422 397.858826,449.134888 
	C397.520844,443.013184 396.440125,436.769287 397.224091,430.780548 
	C399.271698,415.139008 397.745026,399.613586 397.459961,384.029541 
	C403.992737,384.003082 410.061005,383.858704 416.117157,384.066589 
	C417.677399,384.120148 419.199554,385.281616 420.739227,385.934113 
	C420.774902,405.301117 420.810577,424.668091 420.393402,444.597046 
	C418.769592,449.210266 417.447205,453.270660 420.652679,457.060089 
z"/>
<path fill="#FCFCFD" opacity="1.000000" stroke="none" 
	d="
M679.382446,499.988647 
	C679.272888,497.927887 679.163330,495.867126 679.210388,493.064392 
	C686.100220,487.533722 686.316833,486.012207 683.147583,477.993927 
	C682.291382,475.827972 683.004272,473.049255 682.959656,470.552429 
	C682.930054,468.896545 683.212219,467.111237 682.694641,465.611816 
	C681.319458,461.628326 679.586426,457.768372 677.995667,453.859314 
	C691.608459,453.859314 705.221191,453.859314 719.381714,453.859314 
	C719.381714,455.824860 719.382507,457.913818 719.381653,460.002777 
	C719.372498,482.471649 719.309753,504.940765 719.402954,527.409241 
	C719.419617,531.439392 718.734924,534.753296 715.275269,537.387024 
	C708.673767,542.412598 702.291504,547.726135 695.104370,552.891663 
	C692.809204,551.577148 691.364624,549.445862 689.621033,549.163940 
	C684.441406,548.326538 682.368042,546.600464 682.019775,541.264282 
	C681.726685,536.773560 683.085632,532.007019 679.333679,528.138123 
	C678.755676,527.542053 679.231323,525.928711 679.211365,524.785950 
	C679.155029,521.564331 679.094360,518.342773 679.035400,515.121155 
	C679.100220,513.941528 679.165039,512.761841 679.728027,511.304688 
	C681.280701,512.311829 682.335144,513.596497 683.378784,514.867920 
	C687.948120,512.374329 691.742554,502.884979 689.636536,498.787781 
	C689.173401,497.886719 687.368774,496.915558 686.475769,497.140961 
	C684.027710,497.758850 681.736023,498.996399 679.382446,499.988647 
z"/>
<path fill="#DFDCF9" opacity="1.000000" stroke="none" 
	d="
M603.779419,506.705505 
	C604.147034,507.015900 604.514709,507.326294 604.939819,508.301056 
	C608.544373,523.442871 607.322021,538.312622 607.865662,553.518982 
	C607.220215,554.525452 606.110474,556.255920 605.000671,557.986389 
	C595.279785,553.866882 586.561890,548.309448 579.357056,539.741699 
	C580.747314,539.224976 582.363770,539.224976 584.441589,539.224976 
	C583.826782,537.599670 583.133850,535.667114 582.366821,533.764404 
	C581.274292,531.054016 579.701721,528.455994 579.104614,525.646301 
	C578.232422,521.542236 581.615845,516.836487 577.367615,513.069153 
	C577.080811,512.814880 577.887756,511.533539 577.872009,510.736115 
	C577.668640,500.469696 577.342468,490.205383 577.185669,479.938416 
	C577.082886,473.213989 577.197449,466.486145 577.227783,459.759857 
	C577.246277,455.668762 577.335938,451.577545 577.312866,447.486847 
	C577.261780,438.436646 576.772644,429.366150 577.252808,420.346008 
	C577.470764,416.250549 575.552368,414.205780 573.027161,411.996216 
	C579.486206,406.046509 585.945190,400.096802 593.149170,394.066101 
	C599.361206,394.426300 601.851746,399.395081 599.473206,404.368530 
	C598.214417,407.000580 597.656677,410.005035 597.036560,412.895874 
	C596.277344,416.435211 596.209290,420.171783 595.087646,423.574249 
	C592.763550,430.624115 594.438660,434.178528 601.255920,435.552917 
	C599.508423,441.014801 597.757019,446.488770 596.005615,451.962738 
	C591.297485,461.274567 591.076843,471.517761 592.465759,481.209351 
	C593.527161,488.615448 598.090149,495.519714 601.111633,503.364807 
	C601.416077,505.053070 601.704407,506.023834 601.855286,507.050049 
	C601.813660,507.072784 601.909485,507.040039 602.450562,506.941925 
	C603.190308,506.819550 603.484863,506.762543 603.779419,506.705505 
z"/>
<path fill="#B7B3F6" opacity="1.000000" stroke="none" 
	d="
M465.274292,427.992493 
	C474.927887,418.320160 484.581451,408.647858 494.740234,399.164093 
	C495.609039,401.954834 496.015594,404.551941 496.325195,407.160553 
	C496.695801,410.283264 497.071991,413.409943 497.277893,416.545929 
	C497.428894,418.845490 497.319153,421.162781 497.308411,423.472137 
	C497.287781,427.896790 497.584473,432.353729 497.154266,436.738892 
	C496.401276,444.414825 495.198883,452.046661 494.184753,459.697021 
	C493.920593,460.082581 493.656403,460.468140 492.835175,460.772766 
	C488.457703,459.842438 489.083649,462.459198 489.181396,464.664185 
	C487.047913,466.966217 484.914429,469.268219 482.780945,471.570251 
	C482.363037,471.974976 481.945129,472.379700 481.527222,472.784424 
	C485.239838,475.992523 488.952484,479.200653 492.442322,482.779907 
	C489.146698,487.777954 495.281067,486.700928 496.045227,489.087219 
	C496.228729,489.660278 498.384705,489.601685 499.633575,489.833588 
	C499.633575,489.833588 499.924927,490.033752 499.716827,490.576111 
	C499.339142,492.412323 499.169586,493.706177 498.863312,495.053375 
	C498.817749,495.071167 498.908875,495.035583 499.312592,495.048401 
	C499.533264,497.067657 499.342621,499.039856 499.370667,501.008972 
	C499.423340,504.706726 498.290070,509.276459 500.034210,511.896179 
	C502.702820,515.904419 503.018341,519.746338 503.018341,524.050842 
	C503.018341,527.188416 503.223114,530.325684 503.313873,533.463684 
	C503.523743,540.717896 503.719879,547.972473 503.921570,555.226929 
	C497.622864,549.054077 491.324158,542.881287 485.249634,536.336548 
	C485.854156,533.801208 486.234497,531.637817 486.614838,529.474365 
	C486.015137,529.397461 485.415436,529.320557 484.815735,529.243591 
	C484.553162,531.130737 484.290619,533.017944 484.028046,534.905090 
	C481.363739,532.525513 478.699432,530.145935 476.292603,527.440674 
	C477.625549,526.986450 478.701080,526.858032 479.776581,526.729553 
	C479.490448,526.226074 479.204346,525.722656 478.918213,525.219177 
	C477.901062,525.873169 476.883911,526.527222 475.866760,527.181274 
	C473.940887,525.345947 472.014954,523.510681 470.373962,521.391785 
	C477.304688,522.953186 478.346222,522.062012 478.048157,515.212280 
	C477.955811,513.089966 478.491302,510.947815 478.539062,508.810242 
	C478.612335,505.529846 478.755646,502.222076 478.441193,498.967285 
	C477.396698,488.155975 475.650421,477.386505 475.154785,466.556061 
	C474.732605,457.330170 475.830536,448.044342 475.945251,438.781158 
	C476.033661,431.640656 471.325317,427.116730 465.274292,427.992493 
M472.518036,423.413818 
	C472.518036,423.413818 472.583069,423.523499 472.518036,423.413818 
z"/>
<path fill="#5155F0" opacity="1.000000" stroke="none" 
	d="
M328.612732,562.885620 
	C321.340454,562.885620 314.068176,562.885620 306.430115,562.885620 
	C306.430115,503.065674 306.430115,443.435394 306.430115,383.021759 
	C310.624329,383.021759 314.865112,383.021759 319.559204,383.579041 
	C319.706207,387.585846 319.236481,391.031097 319.146851,394.486237 
	C319.079102,397.098907 319.505463,399.723572 319.697083,402.343964 
	C320.318787,410.845184 321.196991,419.338654 321.464630,427.851166 
	C321.664978,434.222260 320.785797,440.623352 320.898010,447.002075 
	C321.123505,459.818726 324.157196,472.672272 320.016998,485.412201 
	C319.543549,486.869080 319.751648,488.613586 319.911560,490.197723 
	C320.401642,495.053467 321.373230,499.885681 321.516418,504.745941 
	C321.787048,513.933105 321.613007,523.133484 321.618317,532.328369 
	C321.619537,534.457275 322.392059,537.063599 321.448608,538.631104 
	C317.693298,544.870239 319.505035,551.596985 318.966827,558.112305 
	C318.705597,561.274414 320.120911,562.336548 323.290894,562.270325 
	C325.237274,562.642578 326.924988,562.764099 328.612732,562.885620 
z"/>
<path fill="#6F6CF8" opacity="1.000000" stroke="none" 
	d="
M329.108093,562.961731 
	C326.924988,562.764099 325.237274,562.642578 323.727295,562.265869 
	C327.021362,561.511475 331.355225,563.760864 332.325867,558.379639 
	C333.263092,553.183655 334.719330,547.990295 334.878601,542.763184 
	C335.256134,530.372498 335.308472,517.951965 334.884338,505.564270 
	C334.629852,498.130737 333.285553,490.741608 335.884674,483.462341 
	C336.038086,483.032654 335.802216,482.477783 335.819794,481.983734 
	C336.059052,475.268921 336.334259,468.555267 336.541504,461.839539 
	C336.586121,460.394775 336.454590,458.936768 336.305115,457.495148 
	C335.625519,450.941345 334.289795,444.385986 334.344940,437.840912 
	C334.442505,426.262695 335.601074,414.696899 335.877411,403.115448 
	C336.035034,396.509583 335.325989,389.883087 335.007202,383.265869 
	C349.088501,382.078430 349.092529,382.078430 349.094330,396.034821 
	C349.101257,449.830109 349.105347,503.625366 349.110443,557.420654 
	C349.110626,559.070190 349.110474,560.719727 349.110474,563.037842 
	C342.433716,563.037842 336.018585,563.037842 329.108093,562.961731 
z"/>
<path fill="#5F62F9" opacity="1.000000" stroke="none" 
	d="
M334.552490,383.154480 
	C335.325989,389.883087 336.035034,396.509583 335.877411,403.115448 
	C335.601074,414.696899 334.442505,426.262695 334.344940,437.840912 
	C334.289795,444.385986 335.625519,450.941345 336.305115,457.495148 
	C336.454590,458.936768 336.586121,460.394775 336.541504,461.839539 
	C336.334259,468.555267 336.059052,475.268921 335.819794,481.983734 
	C335.802216,482.477783 336.038086,483.032654 335.884674,483.462341 
	C333.285553,490.741608 334.629852,498.130737 334.884338,505.564270 
	C335.308472,517.951965 335.256134,530.372498 334.878601,542.763184 
	C334.719330,547.990295 333.263092,553.183655 332.325867,558.379639 
	C331.355225,563.760864 327.021362,561.511475 323.468628,562.015137 
	C320.120911,562.336548 318.705597,561.274414 318.966827,558.112305 
	C319.505035,551.596985 317.693298,544.870239 321.448608,538.631104 
	C322.392059,537.063599 321.619537,534.457275 321.618317,532.328369 
	C321.613007,523.133484 321.787048,513.933105 321.516418,504.745941 
	C321.373230,499.885681 320.401642,495.053467 319.911560,490.197723 
	C319.751648,488.613586 319.543549,486.869080 320.016998,485.412201 
	C324.157196,472.672272 321.123505,459.818726 320.898010,447.002075 
	C320.785797,440.623352 321.664978,434.222260 321.464630,427.851166 
	C321.196991,419.338654 320.318787,410.845184 319.697083,402.343964 
	C319.505463,399.723572 319.079102,397.098907 319.146851,394.486237 
	C319.236481,391.031097 319.706207,387.585846 320.012390,383.696930 
	C324.707397,383.186066 329.402618,383.114594 334.552490,383.154480 
z"/>
<path fill="#EAE7F9" opacity="1.000000" stroke="none" 
	d="
M596.341858,451.890625 
	C597.757019,446.488770 599.508423,441.014801 601.255920,435.552917 
	C594.438660,434.178528 592.763550,430.624115 595.087646,423.574249 
	C596.209290,420.171783 596.277344,416.435211 597.036560,412.895874 
	C597.656677,410.005035 598.214417,407.000580 599.473206,404.368530 
	C601.851746,399.395081 599.361206,394.426300 593.491211,394.003540 
	C610.350708,382.242828 629.620850,378.015289 650.558716,379.285950 
	C650.026306,380.542725 649.166443,381.342010 647.844299,382.571045 
	C653.486938,383.638580 654.540771,386.402161 652.588318,391.024506 
	C651.236816,394.224091 651.726379,397.268921 654.361145,400.189697 
	C655.489197,401.440186 655.837708,405.313873 654.883789,406.188202 
	C650.875671,409.861816 651.829041,417.955872 644.197449,418.288788 
	C644.111755,418.292511 644.052124,418.895691 643.980347,419.219025 
	C629.951111,420.455566 617.344055,425.202911 607.715698,435.707581 
	C603.360901,440.458679 600.316772,446.411072 596.341858,451.890625 
z"/>
<path fill="#F6F5FB" opacity="1.000000" stroke="none" 
	d="
M644.373474,419.348450 
	C644.052124,418.895691 644.111755,418.292511 644.197449,418.288788 
	C651.829041,417.955872 650.875671,409.861816 654.883789,406.188202 
	C655.837708,405.313873 655.489197,401.440186 654.361145,400.189697 
	C651.726379,397.268921 651.236816,394.224091 652.588318,391.024506 
	C654.540771,386.402161 653.486938,383.638580 647.844299,382.571045 
	C649.166443,381.342010 650.026306,380.542725 650.943787,379.411774 
	C676.381470,380.165802 697.398254,390.608795 714.027466,407.755707 
	C705.034790,417.812378 696.188843,427.704926 687.251587,437.699615 
	C678.368652,429.718506 669.720642,424.237061 659.289551,420.686218 
	C657.720825,417.948059 656.478455,416.653412 655.013123,419.972839 
	C651.597656,419.807861 648.182129,419.642883 644.373474,419.348450 
z"/>
<path fill="#F6F5FB" opacity="1.000000" stroke="none" 
	d="
M678.704956,515.241760 
	C679.094360,518.342773 679.155029,521.564331 679.211365,524.785950 
	C679.231323,525.928711 678.755676,527.542053 679.333679,528.138123 
	C683.085632,532.007019 681.726685,536.773560 682.019775,541.264282 
	C682.368042,546.600464 684.441406,548.326538 689.621033,549.163940 
	C691.364624,549.445862 692.809204,551.577148 694.771545,552.933472 
	C684.191711,560.119568 671.982361,563.918274 659.221313,565.809387 
	C652.885193,566.748352 646.376160,566.519775 639.491333,566.330139 
	C637.366699,565.867004 635.695984,565.893066 634.025330,565.919128 
	C632.248474,565.699646 630.471680,565.480164 628.405640,564.761719 
	C629.172119,563.603760 630.285034,562.305603 631.273743,562.394165 
	C636.115845,562.827881 636.197998,560.906616 634.695068,557.099609 
	C633.875671,555.023987 634.179565,552.477173 634.120605,550.139282 
	C634.084656,548.714111 634.780640,547.127075 634.359131,545.879272 
	C632.325317,539.859009 631.505737,534.224426 637.790527,530.372925 
	C636.654236,528.458374 635.764709,526.959595 634.875183,525.460754 
	C650.745789,527.999634 665.272522,524.749573 678.704956,515.241760 
z"/>
<path fill="#AEA9F7" opacity="1.000000" stroke="none" 
	d="
M465.098846,428.065338 
	C471.325317,427.116730 476.033661,431.640656 475.945251,438.781158 
	C475.830536,448.044342 474.732605,457.330170 475.154785,466.556061 
	C475.650421,477.386505 477.396698,488.155975 478.441193,498.967285 
	C478.755646,502.222076 478.612335,505.529846 478.539062,508.810242 
	C478.491302,510.947815 477.955811,513.089966 478.048157,515.212280 
	C478.346222,522.062012 477.304688,522.953186 470.266357,521.078979 
	C468.302429,519.618408 466.731079,518.186951 464.944519,516.194153 
	C464.412689,515.453796 464.096069,515.274780 463.779480,515.095825 
	C462.891357,514.319031 462.003204,513.542236 460.963623,512.471863 
	C460.812195,512.178223 460.908447,512.240601 460.908447,512.240601 
	C457.482300,509.147644 454.056152,506.054688 450.184570,502.626831 
	C450.552246,501.222687 451.365387,500.153381 452.207001,499.046600 
	C453.337860,496.309845 454.340363,493.231964 455.844757,490.422852 
	C457.412018,487.496429 458.277405,484.820068 456.780029,481.536133 
	C454.643890,476.851349 452.923859,472.134338 456.664398,467.173004 
	C457.743134,465.742126 457.818329,463.382324 457.921265,461.425659 
	C458.108551,457.864807 458.174164,454.272400 457.918182,450.720001 
	C457.619110,446.569031 456.397400,442.825378 451.544067,441.816650 
	C455.344727,437.903015 459.145416,433.989380 463.571472,429.864868 
	C464.423035,429.274292 464.649200,428.894684 464.875366,428.515076 
	C464.875397,428.515076 464.923401,428.138214 465.098846,428.065338 
z"/>
<path fill="#D9D6FA" opacity="1.000000" stroke="none" 
	d="
M572.856140,412.291962 
	C575.552368,414.205780 577.470764,416.250549 577.252808,420.346008 
	C576.772644,429.366150 577.261780,438.436646 577.312866,447.486847 
	C577.335938,451.577545 577.246277,455.668762 577.227783,459.759857 
	C577.197449,466.486145 577.082886,473.213989 577.185669,479.938416 
	C577.342468,490.205383 577.668640,500.469696 577.872009,510.736115 
	C577.887756,511.533539 577.080811,512.814880 577.367615,513.069153 
	C581.615845,516.836487 578.232422,521.542236 579.104614,525.646301 
	C579.701721,528.455994 581.274292,531.054016 582.366821,533.764404 
	C583.133850,535.667114 583.826782,537.599670 584.441589,539.224976 
	C582.363770,539.224976 580.747314,539.224976 579.066528,539.554199 
	C574.232544,534.223938 569.463074,528.564392 564.934937,522.415222 
	C565.428040,518.966553 566.978760,515.150452 565.694885,513.204712 
	C561.361023,506.636444 563.061218,499.393127 562.489868,492.555786 
	C561.693604,483.027588 562.025757,473.359375 562.522461,463.784637 
	C562.864990,457.182831 560.540588,450.516724 563.973999,443.887177 
	C566.488281,439.032196 564.239014,435.302032 558.976196,432.992340 
	C559.135193,432.437897 559.294189,431.883453 559.949219,430.966553 
	C560.560425,430.204193 560.675659,429.804291 560.790894,429.404358 
	C564.755615,423.798828 568.720337,418.193268 572.856140,412.291962 
z"/>
<path fill="#F6F5FB" opacity="1.000000" stroke="none" 
	d="
M677.610718,453.716064 
	C679.586426,457.768372 681.319458,461.628326 682.694641,465.611816 
	C683.212219,467.111237 682.930054,468.896545 682.959656,470.552429 
	C683.004272,473.049255 682.291382,475.827972 683.147583,477.993927 
	C686.316833,486.012207 686.100220,487.533722 679.201416,492.620117 
	C667.093262,492.917847 655.150696,492.917847 642.941833,492.917847 
	C642.941833,479.649109 642.941833,466.907043 642.941833,453.572784 
	C654.412170,453.572784 665.819031,453.572784 677.610718,453.716064 
z"/>
<path fill="#C1BDF5" opacity="1.000000" stroke="none" 
	d="
M499.312592,495.048401 
	C499.169586,493.706177 499.339142,492.412323 499.815491,490.722778 
	C509.605042,499.685577 519.087830,509.044037 528.358398,518.780762 
	C527.898132,519.980042 527.219971,521.342224 527.467957,521.539368 
	C530.216003,523.724121 529.580994,526.583984 528.947388,529.227905 
	C527.329346,535.979675 527.216919,542.498230 530.331543,548.942078 
	C530.855469,550.026123 530.055298,551.776001 529.798950,553.206055 
	C529.223022,556.418579 528.604431,559.623535 528.003174,562.831543 
	C523.217651,562.891541 518.189453,563.881592 513.723816,562.716064 
	C510.180573,561.791260 507.326294,558.226746 504.043854,555.530640 
	C503.719879,547.972473 503.523743,540.717896 503.313873,533.463684 
	C503.223114,530.325684 503.018341,527.188416 503.018341,524.050842 
	C503.018341,519.746338 502.702820,515.904419 500.034210,511.896179 
	C498.290070,509.276459 499.423340,504.706726 499.370667,501.008972 
	C499.342621,499.039856 499.533264,497.067657 499.312592,495.048401 
z"/>
<path fill="#A19EF6" opacity="1.000000" stroke="none" 
	d="
M451.242157,441.923279 
	C456.397400,442.825378 457.619110,446.569031 457.918182,450.720001 
	C458.174164,454.272400 458.108551,457.864807 457.921265,461.425659 
	C457.818329,463.382324 457.743134,465.742126 456.664398,467.173004 
	C452.923859,472.134338 454.643890,476.851349 456.780029,481.536133 
	C458.277405,484.820068 457.412018,487.496429 455.844757,490.422852 
	C454.340363,493.231964 453.337860,496.309845 452.207001,499.046600 
	C451.365387,500.153381 450.552246,501.222687 449.838776,502.547607 
	C444.158051,508.309204 438.362579,513.799500 432.603699,519.327881 
	C429.803040,522.016418 427.070618,524.776123 423.844116,527.653320 
	C423.380920,527.803040 422.999512,527.766968 422.999512,527.766968 
	C423.361511,526.518127 423.408325,524.421143 424.134094,524.151489 
	C431.518585,521.407715 428.190643,514.516052 430.129913,509.708344 
	C434.116608,499.824554 431.927338,489.516907 433.329010,479.538788 
	C434.089691,474.123566 437.594452,469.082581 433.905304,462.871307 
	C432.216492,463.882050 430.491974,464.914215 428.399048,465.988098 
	C428.030670,466.029877 428.001099,466.000946 428.027100,465.775085 
	C428.053070,465.549255 428.009155,465.096680 428.009155,465.096680 
	C435.652863,457.407745 443.296539,449.718811 451.242157,441.923279 
z"/>
<path fill="#C1BDF5" opacity="1.000000" stroke="none" 
	d="
M494.503571,459.541229 
	C495.198883,452.046661 496.401276,444.414825 497.154266,436.738892 
	C497.584473,432.353729 497.287781,427.896790 497.308411,423.472137 
	C497.319153,421.162781 497.428894,418.845490 497.277893,416.545929 
	C497.071991,413.409943 496.695801,410.283264 496.325195,407.160553 
	C496.015594,404.551941 495.609039,401.954834 495.058228,399.043304 
	C499.614105,393.917603 503.864563,388.402679 509.300781,384.569214 
	C512.170898,382.545258 517.107605,383.451813 521.562622,383.532288 
	C521.376404,389.549591 519.061096,395.556458 520.488281,400.478119 
	C522.720154,408.174927 520.324280,414.378357 518.003418,421.050415 
	C516.393799,425.677826 516.293213,430.175720 520.039490,434.013763 
	C514.220886,439.897461 508.402344,445.781158 502.134430,451.507751 
	C500.909851,451.158051 500.134552,450.965454 499.359283,450.772827 
	C499.864441,451.501526 500.369598,452.230225 500.874756,452.958954 
	C498.857300,455.101105 496.839844,457.243286 494.503571,459.541229 
z"/>
<path fill="#EAE7F9" opacity="1.000000" stroke="none" 
	d="
M634.576782,525.297607 
	C635.764709,526.959595 636.654236,528.458374 637.790527,530.372925 
	C631.505737,534.224426 632.325317,539.859009 634.359131,545.879272 
	C634.780640,547.127075 634.084656,548.714111 634.120605,550.139282 
	C634.179565,552.477173 633.875671,555.023987 634.695068,557.099609 
	C636.197998,560.906616 636.115845,562.827881 631.273743,562.394165 
	C630.285034,562.305603 629.172119,563.603760 628.060669,564.594604 
	C620.509949,562.773499 613.015137,560.620544 605.260498,558.226990 
	C606.110474,556.255920 607.220215,554.525452 607.865662,553.518982 
	C607.322021,538.312622 608.544373,523.442871 604.979248,508.544312 
	C612.670776,517.348633 622.698669,522.578857 634.576782,525.297607 
z"/>
<path fill="#CECAF7" opacity="1.000000" stroke="none" 
	d="
M528.464233,562.921936 
	C528.604431,559.623535 529.223022,556.418579 529.798950,553.206055 
	C530.055298,551.776001 530.855469,550.026123 530.331543,548.942078 
	C527.216919,542.498230 527.329346,535.979675 528.947388,529.227905 
	C529.580994,526.583984 530.216003,523.724121 527.467957,521.539368 
	C527.219971,521.342224 527.898132,519.980042 528.471802,519.087158 
	C543.291382,533.234741 557.785400,547.454102 572.279480,561.673462 
	C572.027222,562.119751 571.774902,562.566040 571.522644,563.012329 
	C557.323486,563.012329 543.124390,563.012329 528.464233,562.921936 
z"/>
<path fill="#CECAF7" opacity="1.000000" stroke="none" 
	d="
M558.707275,433.212097 
	C564.239014,435.302032 566.488281,439.032196 563.973999,443.887177 
	C560.540588,450.516724 562.864990,457.182831 562.522461,463.784637 
	C562.025757,473.359375 561.693604,483.027588 562.489868,492.555786 
	C563.061218,499.393127 561.361023,506.636444 565.694885,513.204712 
	C566.978760,515.150452 565.428040,518.966553 564.815186,522.078247 
	C547.792603,495.297791 545.193054,467.072784 556.685730,437.558472 
	C557.227783,436.166504 557.852295,434.806671 558.707275,433.212097 
z"/>
<path fill="#726DD4" opacity="1.000000" stroke="none" 
	d="
M395.960541,562.010864 
	C403.937592,561.716187 411.914673,561.421570 420.282471,561.046265 
	C420.022552,561.733093 419.378021,563.164185 418.720306,563.170227 
	C404.773926,563.299316 390.826019,563.268005 376.269501,563.268005 
	C376.269501,560.722290 376.269836,558.607849 376.269470,556.493408 
	C376.262726,516.378601 376.276520,476.263733 376.238892,436.148956 
	C376.223755,420.007080 376.173584,403.864288 375.958466,387.724304 
	C375.911102,384.170624 376.779053,382.697449 380.676849,382.764008 
	C392.991302,382.974304 405.312103,382.802734 417.630463,382.803894 
	C419.384094,382.804047 421.655365,382.270416 420.889771,385.677063 
	C419.199554,385.281616 417.677399,384.120148 416.117157,384.066589 
	C410.061005,383.858704 403.992737,384.003082 396.996582,384.011719 
	C392.900177,384.007172 389.733704,383.926361 386.572754,384.023865 
	C379.639008,384.237732 377.802826,386.530579 378.770752,393.204681 
	C379.000763,394.790680 378.465515,396.472931 378.437500,398.113556 
	C378.287170,406.918915 377.024323,415.927704 378.511536,424.453522 
	C379.377808,429.419525 378.909271,433.688416 378.437714,438.356293 
	C377.956055,443.124359 376.265778,449.614136 378.609833,452.385986 
	C382.014160,456.411713 380.639984,459.849121 380.950928,463.611389 
	C381.290741,467.722809 381.720886,471.843140 381.731415,475.960571 
	C381.741119,479.750916 381.325012,483.550293 380.957367,487.332123 
	C380.105469,496.095825 378.855835,504.834778 378.391663,513.616699 
	C378.135864,518.455933 379.063965,523.370850 379.621155,528.232971 
	C379.824036,530.003296 380.972046,531.745544 380.877869,533.455933 
	C380.441742,541.375427 379.807892,549.287476 379.056000,557.184265 
	C378.775696,560.127869 379.799713,561.741028 382.706665,561.843079 
	C387.121155,561.998169 391.542236,561.964417 395.960541,562.010864 
z"/>
<path fill="#CECAF7" opacity="1.000000" stroke="none" 
	d="
M520.358032,433.911255 
	C516.293213,430.175720 516.393799,425.677826 518.003418,421.050415 
	C520.324280,414.378357 522.720154,408.174927 520.488281,400.478119 
	C519.061096,395.556458 521.376404,389.549591 522.014404,383.636292 
	C528.040833,383.167908 534.066650,383.092468 540.565857,383.514709 
	C541.039185,390.461273 541.039185,396.910156 541.039185,402.933197 
	C543.220459,404.099182 545.510742,405.323456 547.801025,406.547729 
	C547.801025,406.547729 547.658569,406.656494 547.218994,406.512634 
	C543.002075,406.213348 541.316650,407.664886 542.799255,411.549988 
	C542.799255,411.549988 542.659607,411.649811 542.218628,411.509552 
	C536.909424,410.599976 536.844971,413.762543 537.049927,417.145508 
	C531.592163,422.699921 526.134399,428.254333 520.358032,433.911255 
z"/>
<path fill="#EEEDEE" opacity="1.000000" stroke="none" 
	d="
M315.364380,640.821411 
	C315.360352,642.921448 315.360352,644.565857 315.360352,646.488525 
	C312.953522,646.488525 310.918854,646.488525 308.566071,646.488525 
	C308.566071,637.516235 308.566071,628.776489 308.566071,619.521729 
	C319.174194,618.029846 319.525909,629.061218 326.193817,632.879395 
	C326.193817,628.604919 326.193817,624.303467 326.193817,619.658447 
	C328.817963,619.658447 330.702698,619.658447 332.962616,619.658447 
	C332.962616,628.588806 332.962616,637.473267 332.962616,646.741150 
	C322.816589,647.405762 322.306213,636.689819 315.745972,632.600403 
	C315.612976,635.335876 315.490692,637.850830 315.364380,640.821411 
z"/>
<path fill="#EEEDEE" opacity="1.000000" stroke="none" 
	d="
M563.414062,629.064575 
	C563.418030,635.021606 563.418030,640.491028 563.418030,645.898315 
	C558.167542,648.563660 556.147888,644.952332 553.817749,641.709839 
	C551.521851,638.514954 549.013000,635.473022 545.784119,631.317017 
	C545.784119,637.034790 545.784119,641.684509 545.784119,646.526123 
	C543.148682,646.526123 541.224426,646.526123 539.049438,646.526123 
	C539.049438,637.448547 539.049438,628.554749 539.049438,619.335449 
	C549.490540,618.211365 549.682739,628.995117 556.345581,633.112488 
	C556.345581,628.586182 556.345581,624.174927 556.345581,619.539856 
	C559.134705,619.539856 561.059387,619.539856 563.410156,619.539856 
	C563.410156,622.654785 563.410156,625.615906 563.414062,629.064575 
z"/>
<path fill="#EEEDEE" opacity="1.000000" stroke="none" 
	d="
M486.010620,619.806885 
	C487.734436,620.749390 489.107513,621.571106 490.815948,622.593567 
	C489.403870,624.601929 488.295441,626.178467 487.199371,627.737427 
	C481.744812,624.356323 477.476532,624.113708 474.821747,627.123962 
	C471.987640,630.337646 471.716675,634.013977 473.773865,637.747620 
	C475.611847,641.083374 478.808411,641.545898 482.009979,640.680115 
	C483.307800,640.329163 484.211212,638.519592 485.294067,637.373779 
	C484.966949,637.002380 484.639832,636.630981 484.312683,636.259583 
	C482.703766,636.259583 481.094849,636.259583 479.139618,636.259583 
	C479.037323,634.419617 478.948730,632.826355 478.820831,630.525879 
	C481.088501,630.525879 483.028503,630.525940 484.968506,630.525940 
	C486.791107,630.525940 488.613708,630.525879 491.172577,630.525879 
	C491.172577,634.240540 491.383057,637.987793 491.051270,641.686462 
	C490.944153,642.880432 489.629639,644.287720 488.494141,645.013123 
	C483.129669,648.440186 474.294037,647.795288 469.676056,643.842651 
	C465.304199,640.100708 463.966858,632.794800 466.554718,626.791138 
	C469.056488,620.987183 474.927368,617.995850 482.288055,618.847351 
	C483.429077,618.979309 484.536774,619.399292 486.010620,619.806885 
z"/>
<path fill="#EEEDEE" opacity="1.000000" stroke="none" 
	d="
M643.477478,619.418701 
	C648.863708,618.789124 646.924683,622.320740 647.284851,625.097168 
	C642.845642,625.097168 638.619141,625.097168 634.134521,625.097168 
	C634.134521,626.986389 634.134521,628.380859 634.134521,630.183716 
	C637.963684,630.183716 641.558960,630.183716 645.550537,630.183716 
	C645.669495,632.127808 645.765137,633.691528 645.893005,635.781982 
	C641.788940,635.781982 638.040222,635.781982 633.964600,635.781982 
	C633.964600,637.696716 633.964600,639.107056 633.964600,640.835449 
	C638.431030,640.835449 642.693420,640.835449 647.238525,640.835449 
	C647.238525,642.885376 647.238525,644.618713 647.238525,646.587952 
	C640.424377,646.587952 633.844788,646.587952 626.981506,646.587952 
	C626.981506,637.590698 626.981506,628.682007 626.981506,619.412842 
	C632.484802,619.412842 637.761047,619.412842 643.477478,619.418701 
z"/>
<path fill="#EEEDEE" opacity="1.000000" stroke="none" 
	d="
M368.341339,643.213989 
	C368.689758,646.314575 367.421478,646.956543 364.870453,646.866150 
	C359.398529,646.672424 353.915009,646.806763 348.089478,646.806763 
	C348.089478,637.653870 348.089478,628.785767 348.089478,619.644775 
	C354.579926,619.644775 360.996033,619.644775 367.780090,619.644775 
	C367.780090,621.329590 367.780090,623.193481 367.780090,625.267822 
	C363.487152,625.267822 359.373627,625.267822 354.834900,625.267822 
	C354.717529,626.796387 354.611328,628.179565 354.469330,630.029053 
	C358.607605,630.029053 362.364258,630.029053 366.538574,630.029053 
	C366.704132,631.979126 366.836090,633.533203 366.936920,634.721008 
	C363.320801,638.397339 356.063690,632.412292 353.745728,640.827576 
	C358.256622,640.827576 361.848907,640.684387 365.416412,640.918701 
	C366.429901,640.985291 367.371155,642.151489 368.341339,643.213989 
z"/>
<path fill="#EEEDEE" opacity="1.000000" stroke="none" 
	d="
M512.706665,625.352539 
	C511.898651,626.778381 511.612030,628.144104 511.225159,629.987427 
	C515.505188,629.987427 519.268921,629.987427 523.534912,629.987427 
	C523.661926,632.047241 523.766968,633.750061 523.899170,635.892151 
	C519.746521,635.892151 515.987183,635.892151 511.849365,635.892151 
	C511.764740,637.650635 511.698761,639.021240 511.613098,640.800903 
	C516.472107,640.800903 520.894592,640.800903 525.495239,640.800903 
	C525.495239,642.813416 525.495239,644.437744 525.495239,646.414062 
	C518.665710,646.414062 511.945251,646.414062 504.923462,646.414062 
	C504.923462,637.484802 504.923462,628.587524 504.923462,619.524780 
	C511.662506,619.524780 518.102966,619.524780 524.964783,619.524780 
	C525.056702,621.329346 525.146545,623.093506 525.258545,625.292480 
	C521.071106,625.292480 517.149536,625.292480 512.706665,625.352539 
z"/>
<path fill="#EEEDEE" opacity="1.000000" stroke="none" 
	d="
M712.818726,621.753662 
	C714.829224,620.449036 716.844421,619.580566 719.847168,618.286438 
	C719.847168,621.957642 719.847168,624.076233 719.847168,626.194885 
	C719.847168,632.807556 719.847168,639.420288 719.847168,646.362183 
	C717.304504,646.362183 715.256592,646.362183 712.882446,646.362183 
	C712.882446,643.141785 712.882446,640.029419 712.882446,636.566772 
	C709.531616,636.566772 706.501282,636.566772 703.252197,636.566772 
	C703.101685,639.909790 702.962036,643.010742 702.810242,646.382202 
	C700.534668,646.382202 698.481995,646.382202 696.174561,646.382202 
	C696.174561,637.451294 696.174561,628.715027 696.174561,619.635681 
	C698.219360,619.635681 700.267029,619.635681 702.895569,619.635681 
	C702.895569,622.971741 702.895569,626.357117 702.895569,629.956604 
	C706.392273,629.956604 709.324707,629.956604 712.823425,629.956604 
	C712.823425,627.351990 712.823425,624.770935 712.818726,621.753662 
z"/>
<path fill="#D9D6FA" opacity="1.000000" stroke="none" 
	d="
M548.081787,406.401672 
	C545.510742,405.323456 543.220459,404.099182 541.039185,402.933197 
	C541.039185,396.910156 541.039185,390.461273 541.024231,383.619690 
	C550.367249,383.175751 559.725159,383.124512 569.520752,383.413330 
	C569.965759,384.115692 569.973206,384.478058 569.980591,384.840393 
	C562.774597,391.978790 555.568604,399.117218 548.081787,406.401672 
M546.592957,402.517914 
	C546.592957,402.517914 546.479248,402.586365 546.592957,402.517914 
z"/>
<path fill="#EEEDEE" opacity="1.000000" stroke="none" 
	d="
M404.709778,644.391113 
	C404.899506,645.414856 404.860779,646.138611 404.822052,646.862305 
	C401.210449,646.570190 396.991791,647.811646 395.365021,642.748047 
	C394.928986,641.390747 393.863922,640.235474 392.770538,638.477722 
	C389.004150,642.442261 387.121582,649.350220 379.496307,646.037537 
	C381.856903,642.548401 384.505981,638.999939 386.691803,635.185913 
	C387.376434,633.991333 387.385254,631.762695 386.714081,630.559204 
	C384.712341,626.970032 382.219666,623.654785 379.848083,620.127319 
	C386.764221,617.316101 390.076660,621.301575 392.191742,627.273621 
	C399.393219,618.627808 399.393219,618.627808 405.106537,619.770508 
	C403.039673,623.010010 401.184875,626.303772 398.944519,629.310181 
	C397.042786,631.862122 397.180237,633.864746 399.158905,636.284485 
	C401.144989,638.713318 402.723938,641.475098 404.709778,644.391113 
z"/>
<path fill="#EEEDEE" opacity="1.000000" stroke="none" 
	d="
M682.928955,625.023804 
	C681.905640,626.117676 681.165100,626.998352 680.449158,627.849731 
	C674.127319,624.279663 670.414978,624.278931 667.616699,627.762207 
	C665.212708,630.754822 665.492065,636.072083 668.195496,638.777649 
	C671.265686,641.850159 674.858643,641.573792 679.789795,637.721069 
	C681.165894,638.993042 682.576599,640.297119 683.960327,641.576233 
	C679.868591,647.134521 673.941528,648.702942 667.481812,646.147888 
	C661.197998,643.662415 658.156494,638.278442 658.901001,630.958801 
	C659.530273,624.772583 664.122314,619.518677 670.417297,619.108643 
	C674.021301,618.873962 677.798157,620.085876 681.352844,621.135315 
	C682.255493,621.401855 682.607056,623.535034 682.928955,625.023804 
z"/>
<path fill="#EEEDEE" opacity="1.000000" stroke="none" 
	d="
M414.275024,622.950073 
	C415.335419,621.452576 416.312531,619.494507 417.371704,619.449158 
	C424.018219,619.164062 430.683014,619.304993 437.707001,619.304993 
	C437.707001,621.291504 437.707001,623.007568 437.707001,624.986389 
	C435.206543,625.112183 432.752838,625.235596 429.976532,625.375244 
	C429.976532,632.371277 429.976532,639.149475 429.976532,646.472900 
	C427.607422,646.600098 425.537140,646.711243 422.960144,646.849670 
	C422.960144,639.666504 422.960144,632.778564 422.960144,625.387573 
	C420.555817,625.387573 418.594574,625.597778 416.715179,625.296814 
	C415.807312,625.151428 415.053345,624.045044 414.275024,622.950073 
z"/>
<path fill="#EEEDEE" opacity="1.000000" stroke="none" 
	d="
M603.979004,619.401062 
	C607.764526,619.404602 611.060425,619.404602 614.643555,619.404602 
	C614.643555,621.473999 614.643555,623.179199 614.643555,625.180420 
	C612.059143,625.180420 609.764832,625.180420 606.907349,625.180420 
	C606.907349,632.320129 606.907349,639.181641 606.907349,646.373779 
	C604.298645,646.373779 602.242737,646.373779 599.836914,646.373779 
	C599.836914,639.624573 599.836914,632.862976 599.836914,625.595337 
	C596.957336,625.595337 594.392456,625.595337 591.500366,625.595337 
	C591.500366,623.390991 591.500366,621.696106 591.500366,619.397522 
	C595.648926,619.397522 599.569214,619.397522 603.979004,619.401062 
z"/>
<path fill="#CECAF7" opacity="1.000000" stroke="none" 
	d="
M185.084488,1009.679688 
	C179.092804,1012.340271 177.915710,1011.878235 174.927658,1005.194946 
	C174.458023,1007.492615 174.095047,1009.268372 173.732086,1011.044128 
	C173.348862,1011.080444 172.965652,1011.116760 172.582443,1011.153015 
	C172.226013,1009.360168 171.869583,1007.567322 171.513138,1005.774475 
	C171.185303,1005.751038 170.857452,1005.727539 170.529602,1005.704041 
	C170.061890,1007.487488 169.594162,1009.270935 169.126450,1011.054382 
	C168.802933,1011.080261 168.479416,1011.106201 168.155899,1011.132080 
	C167.591583,1009.073120 167.027267,1007.014099 166.462952,1004.955139 
	C166.091232,1004.982788 165.719513,1005.010498 165.347809,1005.038147 
	C164.931915,1006.670288 164.516022,1008.302429 163.994370,1010.349609 
	C163.512024,1009.305237 163.221680,1008.676575 163.170059,1008.564758 
	C160.474777,1009.614929 157.807098,1010.654358 154.500351,1011.942749 
	C154.500351,1008.072998 154.500351,1005.332581 154.500351,1002.118958 
	C156.000610,1002.118958 158.007690,1001.507996 158.765427,1002.222290 
	C162.517944,1005.759644 165.543930,1004.213501 168.658218,1001.450134 
	C170.476562,999.836670 172.842453,1006.463684 173.825012,1000.914551 
	C175.152176,1002.447021 176.142532,1003.590515 177.132889,1004.734070 
	C177.478424,1004.534668 177.823944,1004.335327 178.169479,1004.135986 
	C178.545486,1005.772278 178.921494,1007.408508 179.297516,1009.044739 
	C179.630615,1009.070740 179.963715,1009.096680 180.296814,1009.122681 
	C180.789276,1007.375305 181.281754,1005.627930 181.730362,1004.036133 
	C183.269287,1005.586914 184.593124,1006.921021 186.647125,1008.102051 
	C187.800797,1008.308044 188.224304,1008.667053 188.647827,1009.026062 
	C188.166458,1009.213257 187.698959,1009.485840 187.200333,1009.566956 
	C186.507278,1009.679749 185.790894,1009.648987 185.084488,1009.679688 
z"/>
<path fill="#EEEDEE" opacity="1.000000" stroke="none" 
	d="
M109.151962,1010.406250 
	C106.981888,1010.699829 105.189209,1010.861023 102.301094,1011.120728 
	C104.159508,1007.741577 105.602570,1005.117615 107.246277,1002.128845 
	C105.028381,1001.859375 103.171112,1001.633667 99.433594,1001.179504 
	C102.136024,998.549255 103.654869,995.836426 105.706879,995.343567 
	C109.413132,994.453430 113.648155,994.830688 115.542854,999.118286 
	C117.112823,1002.670959 116.040573,1006.003662 113.046463,1008.494629 
	C112.062019,1009.313599 110.712128,1009.693298 109.151962,1010.406250 
z"/>
<path fill="#F6F5FB" opacity="1.000000" stroke="none" 
	d="
M96.766510,1011.749878 
	C93.200562,1011.164490 89.744385,1010.980225 85.767197,1010.768188 
	C87.736633,1005.927368 89.167358,1001.099060 91.677292,996.918640 
	C92.616318,995.354797 96.069572,995.300476 99.505783,994.194336 
	C98.003311,998.417419 96.987923,1001.271484 95.798203,1004.615540 
	C97.911034,1004.745239 99.641914,1004.851562 101.930351,1004.992065 
	C100.452507,1008.452820 99.105759,1011.606506 97.759018,1014.760254 
	C97.523506,1014.683899 97.288002,1014.607544 97.052498,1014.531250 
	C96.993759,1013.737793 96.935020,1012.944397 96.766510,1011.749878 
z"/>
<path fill="#F6F5FB" opacity="1.000000" stroke="none" 
	d="
M679.275269,500.421570 
	C681.736023,498.996399 684.027710,497.758850 686.475769,497.140961 
	C687.368774,496.915558 689.173401,497.886719 689.636536,498.787781 
	C691.742554,502.884979 687.948120,512.374329 683.378784,514.867920 
	C682.335144,513.596497 681.280701,512.311829 679.834412,510.964905 
	C679.351074,507.553253 679.259583,504.203888 679.275269,500.421570 
z"/>
<path fill="#EEEDEE" opacity="1.000000" stroke="none" 
	d="
M135.073029,1005.455322 
	C137.117416,1004.778503 139.161804,1004.101685 142.189224,1003.099365 
	C141.111526,1007.531799 144.546722,1012.174011 139.221176,1014.246033 
	C135.186020,1015.815857 135.570770,1011.940430 135.024643,1008.902344 
	C135.070343,1007.290405 135.071686,1006.372864 135.073029,1005.455322 
z"/>
<path fill="#CECAF7" opacity="1.000000" stroke="none" 
	d="
M204.042480,1009.937256 
	C201.146088,1009.395691 197.684586,1013.245972 195.324585,1008.884521 
	C194.818588,1007.949280 194.836227,1006.730713 194.267578,1005.419556 
	C193.922516,1005.196350 193.919968,1005.244568 193.919983,1005.244629 
	C194.801743,1005.075378 195.694275,1004.722107 196.563187,1004.772888 
	C198.811096,1004.904236 201.048599,1005.213806 203.719360,1005.517334 
	C204.113113,1007.033997 204.077789,1008.485657 204.042480,1009.937256 
z"/>
<path fill="#CECAF7" opacity="1.000000" stroke="none" 
	d="
M134.755768,1005.747253 
	C135.071686,1006.372864 135.070343,1007.290405 135.028900,1008.548157 
	C134.212555,1009.279724 133.459351,1009.938293 132.655380,1010.007446 
	C130.914856,1010.157410 128.778412,1010.577087 127.527779,1009.767700 
	C126.747108,1009.262573 126.647522,1005.794983 127.375336,1005.290039 
	C128.653000,1004.403687 130.804321,1004.634399 132.581253,1004.686157 
	C133.212952,1004.704651 133.820145,1005.563782 134.755768,1005.747253 
z"/>
<path fill="#DFDCF9" opacity="1.000000" stroke="none" 
	d="
M147.644867,1003.938843 
	C148.680618,1005.756409 149.650146,1007.511536 149.762909,1009.320129 
	C149.791977,1009.786560 147.028702,1011.009949 145.732742,1010.791260 
	C144.697769,1010.616638 142.992142,1008.148071 143.229462,1007.790955 
	C144.239227,1006.271118 145.861221,1005.158020 147.644867,1003.938843 
z"/>
<path fill="#EEEDEE" opacity="1.000000" stroke="none" 
	d="
M204.196136,1010.390259 
	C204.077789,1008.485657 204.113113,1007.033997 204.095245,1005.283691 
	C206.062454,1004.870239 208.819229,1003.914062 209.906616,1004.865723 
	C211.117416,1005.925049 210.808762,1008.720764 211.161530,1010.760681 
	C210.597092,1010.892883 210.032669,1011.025085 209.468246,1011.157288 
	C209.040787,1009.411377 208.613327,1007.665527 207.961334,1005.002625 
	C206.427353,1007.483459 205.388580,1009.163391 204.196136,1010.390259 
z"/>
<path fill="#D9D6FA" opacity="1.000000" stroke="none" 
	d="
M185.364594,1010.020386 
	C185.790894,1009.648987 186.507278,1009.679749 187.200333,1009.566956 
	C187.698959,1009.485840 188.166458,1009.213257 188.647827,1009.026062 
	C188.224304,1008.667053 187.800797,1008.308044 187.192398,1007.982666 
	C186.354660,1007.129883 185.701813,1006.243286 185.048950,1005.356812 
	C186.513000,1004.770020 187.977036,1004.183228 189.654480,1003.510925 
	C190.408096,1011.396667 190.408096,1011.396667 185.364594,1010.020386 
z"/>
<path fill="#C1BDF5" opacity="1.000000" stroke="none" 
	d="
M499.531799,489.558960 
	C498.384705,489.601685 496.228729,489.660278 496.045227,489.087219 
	C495.281067,486.700928 489.146698,487.777954 492.555542,483.091064 
	C495.071075,485.115479 497.250549,487.199921 499.531799,489.558960 
z"/>
<path fill="#726DD4" opacity="1.000000" stroke="none" 
	d="
M420.786377,456.611694 
	C417.447205,453.270660 418.769592,449.210266 420.319946,445.057404 
	C420.772888,448.691650 420.846466,452.427490 420.786377,456.611694 
z"/>
<path fill="#D9D6FA" opacity="1.000000" stroke="none" 
	d="
M537.364075,417.031250 
	C536.844971,413.762543 536.909424,410.599976 542.165955,411.577332 
	C540.928894,413.495911 539.303589,415.206482 537.364075,417.031250 
z"/>
<path fill="#AEA9F7" opacity="1.000000" stroke="none" 
	d="
M483.964844,535.180786 
	C484.290619,533.017944 484.553162,531.130737 484.815735,529.243591 
	C485.415436,529.320557 486.015137,529.397461 486.614838,529.474365 
	C486.234497,531.637817 485.854156,533.801208 485.135010,536.015930 
	C484.497955,535.863647 484.199799,535.660034 483.964844,535.180786 
z"/>
<path fill="#D9D6FA" opacity="1.000000" stroke="none" 
	d="
M543.070007,411.408142 
	C541.316650,407.664886 543.002075,406.213348 547.159363,406.579529 
	C546.139832,408.282318 544.740295,409.774323 543.070007,411.408142 
z"/>
<path fill="#726DD4" opacity="1.000000" stroke="none" 
	d="
M420.886597,544.525635 
	C420.720245,540.403259 420.672089,535.838257 420.942200,531.083984 
	C421.175232,535.290771 421.089996,539.686890 420.886597,544.525635 
z"/>
<path fill="#726DD4" opacity="1.000000" stroke="none" 
	d="
M422.975037,470.987000 
	C419.144012,471.527313 418.823151,470.892181 420.435974,465.285767 
	C421.188782,466.573212 421.722992,468.102905 422.701843,469.903687 
	C423.077576,470.443054 423.020416,470.713806 422.975037,470.987000 
z"/>
<path fill="#A19EF6" opacity="1.000000" stroke="none" 
	d="
M423.350159,470.990051 
	C423.020416,470.713806 423.077576,470.443054 423.135803,469.967529 
	C423.497101,469.314209 423.869049,468.868134 424.558868,468.163208 
	C424.876709,467.904358 424.794800,468.001709 424.794800,468.001709 
	C425.244019,467.563599 425.693237,467.125519 426.713593,466.428711 
	C427.522980,466.111542 427.761780,466.055206 428.001099,466.000946 
	C428.001099,466.000946 428.030670,466.029877 428.046448,466.044800 
	C426.616547,467.704193 425.170898,469.348663 423.350159,470.990051 
z"/>
<path fill="#EAE7F9" opacity="1.000000" stroke="none" 
	d="
M634.314819,566.065674 
	C635.695984,565.893066 637.366699,565.867004 639.072510,566.198730 
	C637.606567,566.441833 636.105408,566.327087 634.314819,566.065674 
z"/>
<path fill="#EAE7F9" opacity="1.000000" stroke="none" 
	d="
M655.315552,420.141968 
	C656.478455,416.653412 657.720825,417.948059 658.963379,420.501251 
	C657.878052,420.664307 656.747986,420.487732 655.315552,420.141968 
z"/>
<path fill="#C1BDF5" opacity="1.000000" stroke="none" 
	d="
M489.490601,464.526184 
	C489.083649,462.459198 488.457703,459.842438 492.599792,460.827271 
	C491.880890,462.104492 490.840332,463.246307 489.490601,464.526184 
z"/>
<path fill="#CECAF7" opacity="1.000000" stroke="none" 
	d="
M193.920776,1005.173950 
	C193.648376,1004.427856 193.377731,1003.704102 193.287338,1003.462402 
	C193.287338,1003.524475 193.287338,1004.208313 193.603653,1005.068359 
	C193.919968,1005.244568 193.922516,1005.196350 193.920776,1005.173950 
z"/>
<path fill="#B7B3F6" opacity="1.000000" stroke="none" 
	d="
M501.137756,452.877136 
	C500.369598,452.230225 499.864441,451.501526 499.359283,450.772827 
	C500.134552,450.965454 500.909851,451.158051 501.821472,451.616180 
	C501.772095,452.186249 501.586426,452.490784 501.137756,452.877136 
z"/>
<path fill="#EAE7F9" opacity="1.000000" stroke="none" 
	d="
M603.635620,506.374847 
	C603.484863,506.762543 603.190308,506.819550 602.447876,506.938293 
	C602.000000,507.000000 601.992676,506.994598 601.992676,506.994598 
	C601.704407,506.023834 601.416077,505.053070 601.158325,503.696808 
	C601.956543,504.222260 602.724182,505.133209 603.635620,506.374847 
z"/>
<path fill="#726DD4" opacity="1.000000" stroke="none" 
	d="
M428.027100,465.775085 
	C427.761780,466.055206 427.522980,466.111542 427.101501,466.159302 
	C427.134644,465.809143 427.350952,465.469727 427.788208,465.113464 
	C428.009155,465.096680 428.053070,465.549255 428.027100,465.775085 
z"/>
<path fill="#C1BDF5" opacity="1.000000" stroke="none" 
	d="
M570.316833,384.741669 
	C569.973206,384.478058 569.965759,384.115692 569.985596,383.482391 
	C570.226257,383.688599 570.439636,384.165771 570.316833,384.741669 
z"/>
<path fill="#726DD4" opacity="1.000000" stroke="none" 
	d="
M424.860779,467.947998 
	C424.794800,468.001709 424.876709,467.904358 424.909668,467.903656 
	C424.942627,467.902954 424.926727,467.894257 424.860779,467.947998 
z"/>
<path fill="#A19EF6" opacity="1.000000" stroke="none" 
	d="
M460.836670,512.189819 
	C460.908447,512.240601 460.812195,512.178223 460.808289,512.148132 
	C460.804413,512.118042 460.764862,512.138977 460.836670,512.189819 
z"/>
<path fill="#A19EF6" opacity="1.000000" stroke="none" 
	d="
M463.862640,515.370850 
	C464.096069,515.274780 464.412689,515.453796 464.833740,515.892212 
	C464.607422,515.983032 464.276611,515.814514 463.862640,515.370850 
z"/>
<path fill="#CECAF7" opacity="1.000000" stroke="none" 
	d="
M560.520264,429.581299 
	C560.675659,429.804291 560.560425,430.204193 560.184753,430.789429 
	C560.032715,430.569244 560.141235,430.163757 560.520264,429.581299 
z"/>
<path fill="#B7B3F6" opacity="1.000000" stroke="none" 
	d="
M464.577698,428.659363 
	C464.649200,428.894684 464.423035,429.274292 463.876648,429.768036 
	C463.797607,429.522614 464.038818,429.163116 464.577698,428.659363 
z"/>
<path fill="#726DD4" opacity="1.000000" stroke="none" 
	d="
M422.945282,528.018921 
	C422.999512,527.766968 423.380920,527.803040 423.565399,527.854492 
	C423.636169,528.162598 423.467499,528.375671 423.077271,528.665527 
	C422.904205,528.614136 422.897614,528.442505 422.945282,528.018921 
z"/>
<path fill="#8380F7" opacity="1.000000" stroke="none" 
	d="
M396.012726,561.643433 
	C391.542236,561.964417 387.121155,561.998169 382.706665,561.843079 
	C379.799713,561.741028 378.775696,560.127869 379.056000,557.184265 
	C379.807892,549.287476 380.441742,541.375427 380.877869,533.455933 
	C380.972046,531.745544 379.824036,530.003296 379.621155,528.232971 
	C379.063965,523.370850 378.135864,518.455933 378.391663,513.616699 
	C378.855835,504.834778 380.105469,496.095825 380.957367,487.332123 
	C381.325012,483.550293 381.741119,479.750916 381.731415,475.960571 
	C381.720886,471.843140 381.290741,467.722809 380.950928,463.611389 
	C380.639984,459.849121 382.014160,456.411713 378.609833,452.385986 
	C376.265778,449.614136 377.956055,443.124359 378.437714,438.356293 
	C378.909271,433.688416 379.377808,429.419525 378.511536,424.453522 
	C377.024323,415.927704 378.287170,406.918915 378.437500,398.113556 
	C378.465515,396.472931 379.000763,394.790680 378.770752,393.204681 
	C377.802826,386.530579 379.639008,384.237732 386.572754,384.023865 
	C389.733704,383.926361 392.900177,384.007172 396.527527,384.024902 
	C397.745026,399.613586 399.271698,415.139008 397.224091,430.780548 
	C396.440125,436.769287 397.520844,443.013184 397.858826,449.134888 
	C398.246887,456.163422 398.543671,463.207306 399.273407,470.203491 
	C399.888184,476.097992 402.062286,481.981354 401.784821,487.785461 
	C401.225708,499.480225 399.395813,511.110809 398.278442,522.785889 
	C398.099976,524.650208 398.808929,526.630188 399.271423,528.516602 
	C399.739075,530.424072 401.125275,532.384460 400.872253,534.143799 
	C399.565125,543.233276 401.252258,552.881897 396.012726,561.643433 
z"/>
<path fill="#EAE7F9" opacity="1.000000" stroke="none" 
	d="
M602.002686,507.003662 
	C601.909485,507.040039 601.813660,507.072784 601.855225,507.050049 
	C601.992676,506.994598 602.000000,507.000000 602.002686,507.003662 
z"/>
<path fill="#AEA9F7" opacity="1.000000" stroke="none" 
	d="
M475.914246,527.120239 
	C476.883911,526.527222 477.901062,525.873169 478.918213,525.219177 
	C479.204346,525.722656 479.490448,526.226074 479.776581,526.729553 
	C478.701080,526.858032 477.625549,526.986450 476.186432,527.120972 
	C475.822815,527.127075 475.961700,527.059265 475.914246,527.120239 
z"/>
<path fill="#C1BDF5" opacity="1.000000" stroke="none" 
	d="
M498.863312,495.053375 
	C498.908875,495.035583 498.817749,495.071167 498.863312,495.053375 
z"/>
<path fill="#AEA9F7" opacity="1.000000" stroke="none" 
	d="
M472.550537,423.468658 
	C472.583069,423.523499 472.518036,423.413818 472.550537,423.468658 
z"/>
<path fill="#CECAF7" opacity="1.000000" stroke="none" 
	d="
M546.536133,402.552124 
	C546.479248,402.586365 546.592957,402.517914 546.536133,402.552124 
z"/>
</svg>